<?xml version="1.0" encoding="iso-8859-1"?>
<!-- Generator: Adobe Illustrator 18.1.1, SVG Export Plug-In . SVG Version: 6.00 Build 0)  -->
<svg version="1.1" id="Capa_1" xmlns="http://www.w3.org/2000/svg" xmlns:xlink="http://www.w3.org/1999/xlink" x="0px" y="0px"
	 viewBox="0 0 21.362 21.362" style="enable-background:new 0 0 21.362 21.362;" xml:space="preserve">
<g>
	<g>
		<g>
			<path style="fill:#010002;" d="M7.112,1.458c0.11,0.934-0.401,1.725-0.401,1.725l0,0c-0.193,0.323-2.623,3.899-1.302,7.928l0,0
				c0.769,2.112,2.103,3.23,2.489,3.577l0,0c0.547,0.446,1.023,0.244,1.023,0.244l0,0c0,0,3.232-1.08,3.652-4.87l0,0
				C13.03,5.933,10.751,1.828,6.167,0C6.167,0,7.022,0.69,7.112,1.458L7.112,1.458z"/>
			<path style="fill:#010002;" d="M10.462,15.243c-3.214,1.241-3.425,4.146-3.425,4.146l0,0c0,0-0.069,0.439,0.443,0.781l0,0
				c0.391,0.232,1.669,1.061,3.687,1.188l0,0c3.816,0.127,6.389-2.711,6.627-2.945l0,0c0,0,0.575-0.605,1.415-0.737l0,0
				c0.69-0.108,1.485,0.429,1.485,0.429c-1.849-2.332-4.42-3.467-7.002-3.467l0,0C12.601,14.637,11.504,14.841,10.462,15.243
				L10.462,15.243z"/>
			<path style="fill:#010002;" d="M1.548,11.019c0.251,0.568,0.081,1.167,0.081,1.167l0,0c-0.06,0.24-0.899,2.969,0.716,5.254l0,0
				c0.895,1.185,1.953,1.631,2.265,1.774l0,0c0.431,0.177,0.692-0.045,0.692-0.045l0,0c0,0,1.831-1.31,1.36-3.78l0,0
				c-0.513-2.695-2.747-4.842-5.993-5.106C0.669,10.282,1.342,10.552,1.548,11.019L1.548,11.019z"/>
		</g>
	</g>
</g>
<g>
</g>
<g>
</g>
<g>
</g>
<g>
</g>
<g>
</g>
<g>
</g>
<g>
</g>
<g>
</g>
<g>
</g>
<g>
</g>
<g>
</g>
<g>
</g>
<g>
</g>
<g>
</g>
<g>
</g>
</svg>
